<?xml version="1.0"?>
<svg xmlns="http://www.w3.org/2000/svg" width="512" height="512" viewBox="0 0 128 128"><g><g><path d="M35.917,39.506V60.859A37.654,37.654,0,0,0,64,97.276,37.654,37.654,0,0,0,92.083,60.859V39.506A133.1,133.1,0,0,0,35.917,39.506Z" fill="#4a6268"/><path d="M82.116,86.373A7.06,7.06,0,0,1,78.1,80.967L77,72.391a21.855,21.855,0,0,1-26,0l-1.1,8.576a7.067,7.067,0,0,1-4.017,5.41A37.578,37.578,0,0,0,64,97.276,37.577,37.577,0,0,0,82.116,86.373Z" fill="#edc1b2"/><path d="M38.978,38.887v1.681h0a22.226,22.226,0,0,0,.5,4.674l1.51,6.891c.787,3.611,1.316,7.465,2.709,10.9a21.93,21.93,0,0,0,40.606,0c1.393-3.438,1.922-7.292,2.709-10.9l1.51-6.891a22.226,22.226,0,0,0,.5-4.674h0V38.887A133.15,133.15,0,0,0,38.978,38.887Z" fill="#f4d5c8"/><path d="M66.207,53.4H64.25a3.43,3.43,0,0,1-3.392-3.945l1.291-7.621a1.75,1.75,0,0,1,3.451.585L64.332,49.9h1.875a1.75,1.75,0,0,1,0,3.5Z" fill="#607880"/><path d="M63.875,63.5a10.373,10.373,0,0,1-8.028-3.346,1.75,1.75,0,0,1,2.7-2.224A6.987,6.987,0,0,0,63.875,60,6.987,6.987,0,0,0,69.2,57.931a1.75,1.75,0,1,1,2.7,2.225A10.371,10.371,0,0,1,63.875,63.5Z" fill="#607880"/><path d="M119.5,110.83v15.42H8.5V110.83A22.417,22.417,0,0,1,25,89.22a47.739,47.739,0,0,1,9.32-1.36,20.956,20.956,0,0,0,7.26,3.52L64,97.28l22.42-5.9a20.8,20.8,0,0,0,7.15-3.44A52.433,52.433,0,0,1,103,89.22,22.417,22.417,0,0,1,119.5,110.83Z" fill="#94e0da"/><path d="M67.792,1.75H60.208A34.292,34.292,0,0,0,25.917,36.042V71.073A21,21,0,0,0,41.579,91.384l8.631,2.268a1.705,1.705,0,0,0-.064.443v15.072a1.75,1.75,0,0,0,3.5,0V94.555L64,97.276A37.654,37.654,0,0,1,35.917,60.859V39.506a133.1,133.1,0,0,1,56.166,0V60.859A37.654,37.654,0,0,1,64,97.276l10.354-2.721v14.612a1.75,1.75,0,0,0,3.5,0V94.1a1.705,1.705,0,0,0-.064-.443l8.631-2.268a21,21,0,0,0,15.662-20.311V36.042A34.292,34.292,0,0,0,67.792,1.75Z" fill="#607880"/><path d="M43.462,38.118l1.549,6.407a4,4,0,0,0,3.888,3.06h4.684a4,4,0,0,0,4-4V36.671A132.977,132.977,0,0,0,43.462,38.118Z" fill="#4a6268"/><path d="M70.417,36.671v6.914a4,4,0,0,0,4,4H79.1a4,4,0,0,0,3.888-3.06l1.549-6.407A132.977,132.977,0,0,0,70.417,36.671Z" fill="#4a6268"/><path d="M70.417,43.878H57.583a1.75,1.75,0,0,1,0-3.5H70.417a1.75,1.75,0,0,1,0,3.5Z" fill="#4a6268"/><g><path d="M28.75,112.25v14h-3.5v-14a1.75,1.75,0,0,1,3.5,0Z" fill="#607880"/><path d="M102.75,112.25v14h-3.5v-14a1.75,1.75,0,0,1,3.5,0Z" fill="#607880"/></g><circle cx="52.417" cy="113.417" r="4.25" fill="#4a6268"/><circle cx="75.583" cy="113.417" r="4.25" fill="#4a6268"/></g><g><path d="M69.2,57.931A6.987,6.987,0,0,1,63.875,60a6.987,6.987,0,0,1-5.326-2.07,1.75,1.75,0,0,0-2.7,2.224A10.373,10.373,0,0,0,63.875,63.5,10.371,10.371,0,0,0,71.9,60.156a1.75,1.75,0,1,0-2.7-2.225Z"/><path d="M103.462,87.528a34.918,34.918,0,0,0-5.72-.979,22.725,22.725,0,0,0,6.091-15.476V36.042a1.75,1.75,0,0,0-3.5,0V71.073A19.262,19.262,0,0,1,85.976,89.691l-6.725,1.767a28.271,28.271,0,0,0,4.218-3.993A39.359,39.359,0,0,0,93.833,60.858V39.505a1.75,1.75,0,0,0-1.38-1.71,133.974,133.974,0,0,0-56.906,0,1.75,1.75,0,0,0-1.38,1.71V60.858a39.36,39.36,0,0,0,10.366,26.61,28.286,28.286,0,0,0,4.216,3.99l-6.725-1.767A19.262,19.262,0,0,1,27.667,71.073V36.042A32.578,32.578,0,0,1,60.208,3.5h7.584A32.543,32.543,0,0,1,97.666,23.116a1.75,1.75,0,1,0,3.211-1.391A36.038,36.038,0,0,0,67.792,0H60.208A36.082,36.082,0,0,0,24.167,36.042V71.073A22.726,22.726,0,0,0,30.2,86.486a38.044,38.044,0,0,0-5.658,1.042,24.217,24.217,0,0,0-17.788,23.3V126.25A1.751,1.751,0,0,0,8.5,128H43.462a1.75,1.75,0,0,0,0-3.5H28.75V112.25a1.75,1.75,0,0,0-3.5,0V124.5h-15V110.833A20.709,20.709,0,0,1,25.461,90.9a43.8,43.8,0,0,1,8.358-1.249,22.681,22.681,0,0,0,7.315,3.421l9.012,2.368v12.422a6,6,0,1,0,3.5-.322V96.364l9.878,2.6a1.765,1.765,0,0,0,.951,0l9.879-2.6v11.18a6.005,6.005,0,1,0,3.5.322V95.444l9.012-2.368a22.647,22.647,0,0,0,7.2-3.34l.605.05a42.676,42.676,0,0,1,7.865,1.118,20.709,20.709,0,0,1,15.211,19.929V124.5h-15V112.25a1.75,1.75,0,0,0-3.5,0V124.5H72.3a1.75,1.75,0,1,0,0,3.5h47.2a1.751,1.751,0,0,0,1.75-1.75V110.833A24.217,24.217,0,0,0,103.462,87.528ZM54.917,113.417a2.5,2.5,0,1,1-2.5-2.5A2.5,2.5,0,0,1,54.917,113.417Zm20.666,2.5a2.5,2.5,0,1,1,2.5-2.5A2.5,2.5,0,0,1,75.583,115.917Zm6.191-31.81a5.2,5.2,0,0,1-1.943-3.362l-.965-7.551a23.635,23.635,0,0,0,7.059-9.5c1.563-3.859,2.109-8.041,2.994-12.086.477-2.176,1-4.347,1.414-6.534V60.858A35.86,35.86,0,0,1,81.774,84.107ZM75.8,71.128a20.189,20.189,0,0,1-30.476-8.75c-1.374-3.391-1.848-7.066-2.622-10.62l-1.508-6.884a20.482,20.482,0,0,1-.461-4.306v-.23c.47-.085.941-.16,1.412-.24l1.17,4.838a5.734,5.734,0,0,0,5.589,4.4h4.684a5.753,5.753,0,0,0,5.735-5.457H61.8l-.945,5.578A3.43,3.43,0,0,0,64.25,53.4h1.957a1.75,1.75,0,0,0,0-3.5H64.332l1.021-6.023h3.329a5.753,5.753,0,0,0,5.735,5.457H79.1a5.734,5.734,0,0,0,5.589-4.4L85.86,40.1c.471.08.942.155,1.412.24v.23a20.448,20.448,0,0,1-.46,4.3L85.3,51.76c-.774,3.552-1.247,7.226-2.62,10.615a20.216,20.216,0,0,1-2.811,4.845A38.279,38.279,0,0,1,75.8,71.128ZM55.833,43.585a2.253,2.253,0,0,1-2.25,2.25H48.9a2.244,2.244,0,0,1-2.187-1.721l-1.1-4.547c3.409-.483,6.833-.834,10.22-1.046Zm16.334-5.064c3.387.212,6.811.563,10.221,1.046l-1.1,4.547A2.244,2.244,0,0,1,79.1,45.835H74.417a2.253,2.253,0,0,1-2.25-2.25Zm-3.5-.187v2.044H59.333V38.333Q64,38.165,68.667,38.334Zm-31,6.738c.418,2.187.937,4.358,1.413,6.534.886,4.046,1.432,8.229,3,12.09a23.623,23.623,0,0,0,7.058,9.5l-.965,7.551a5.21,5.21,0,0,1-1.94,3.365,35.86,35.86,0,0,1-8.562-23.252ZM64,95.463a35.8,35.8,0,0,1-15.379-8.8,8.724,8.724,0,0,0,3.02-5.476l.74-5.79a23.8,23.8,0,0,0,23.238,0l.74,5.791a8.715,8.715,0,0,0,3.023,5.472A35.812,35.812,0,0,1,64,95.463Z"/><path d="M60.819,124.5H54.944a1.75,1.75,0,0,0,0,3.5h5.875a1.75,1.75,0,1,0,0-3.5Z"/></g></g></svg>
